<?xml version="1.0" encoding="utf-8"?>
<svg width="500" zoomAndPan="magnify" viewBox="0 0 375 374.999991" height="500" preserveAspectRatio="xMidYMid meet" version="1.2" xmlns="http://www.w3.org/2000/svg">
  <defs>
    <clipPath id="2b010f8f35">
      <path d="M 51 0 L 372.949219 0 L 372.949219 295 L 51 295 Z M 51 0 "/>
    </clipPath>
  </defs>
  <rect x="0" width="375" y="0" height="374.999991" style="fill:#ffffff;fill-opacity:1;stroke:none;"/>
  <rect x="0" width="375" y="0" height="374.999991" style="fill:#ffffff;fill-opacity:1;stroke:none;"/>
  <g clip-rule="nonzero" clip-path="url(#2b010f8f35)">
    <path style=" stroke:none;fill-rule:nonzero;fill:#000000;fill-opacity:1;" d="M 151.246094 0.699219 L 153.75 0.703125 C 165.558594 0.792969 177.351562 1.472656 189.144531 2.085938 C 193.53125 2.3125 197.917969 2.53125 202.304688 2.753906 C 204.746094 2.875 207.191406 3 209.632812 3.125 C 215.378906 3.417969 221.125 3.6875 226.875 3.910156 L 230.023438 4.03125 C 231.960938 4.101562 233.898438 4.171875 235.839844 4.238281 L 238.417969 4.332031 L 240.65625 4.40625 C 242.570312 4.578125 242.570312 4.578125 245.371094 5.511719 L 245.371094 7.378906 L 240.703125 8.3125 L 243.855469 9.128906 C 247.238281 10.179688 247.238281 10.179688 249.109375 12.046875 C 251.34375 12.339844 251.34375 12.339844 253.894531 12.398438 C 258.269531 12.71875 261.457031 13.589844 265.304688 15.660156 C 266.847656 16.71875 266.847656 16.71875 268.277344 18.183594 C 269.699219 19.761719 269.699219 19.761719 272.453125 20.453125 L 273.386719 17.652344 C 283.660156 24.9375 291.070312 33.417969 296.730469 44.734375 C 297.207031 50.617188 297.648438 56.714844 295.882812 62.402344 C 294.042969 65.925781 292.359375 67.863281 289.144531 70.242188 L 286.460938 71.820312 C 284.480469 74.070312 283.679688 75.492188 282.722656 78.359375 C 282.457031 80.9375 282.558594 83.207031 282.722656 85.828125 L 285.523438 87.695312 C 288.050781 87.480469 289.8125 86.976562 292.023438 85.734375 C 300.046875 79.144531 304.011719 69.386719 307.648438 59.902344 C 308.710938 57.035156 309.738281 54.160156 310.738281 51.273438 L 312.605469 51.273438 C 313.683594 53.433594 313.664062 54.710938 313.65625 57.109375 L 313.648438 59.398438 C 313.539062 61.546875 313.539062 61.546875 312.839844 64.40625 C 312.394531 67.0625 312.394531 67.0625 313.40625 68.988281 C 314.113281 70.285156 314.824219 71.578125 315.535156 72.875 C 316.339844 74.621094 316.339844 74.621094 316.164062 76.957031 L 315.40625 79.292969 L 315.054688 82.96875 C 314.609375 86.582031 313.613281 89.242188 311.671875 92.367188 C 309.523438 94.851562 307.925781 96.679688 304.847656 97.871094 C 301.890625 99.085938 299.597656 100.695312 297.023438 102.582031 L 294.328125 104.535156 C 291.894531 106.324219 291.894531 106.324219 290.195312 109.175781 C 299.09375 105.140625 306.710938 100.347656 313.539062 93.300781 L 315.40625 94.234375 L 313.539062 97.035156 L 315.113281 96.21875 C 317.351562 95.128906 319.625 94.203125 321.941406 93.300781 C 320.492188 96.859375 318.167969 99.140625 315.40625 101.707031 L 313.726562 103.371094 C 303.894531 112.703125 292.164062 118.234375 279.730469 123.261719 L 277.273438 124.261719 L 275.070312 125.140625 L 273.386719 125.988281 L 272.453125 127.855469 C 291.398438 125.46875 310.074219 121.023438 326.613281 111.046875 L 328.480469 111.046875 L 328.480469 118.515625 L 333.148438 117.582031 C 329.972656 120.945312 326.730469 123.449219 322.875 125.988281 L 321.941406 127.855469 L 323.519531 128.5 C 328.238281 131.175781 331.734375 135.742188 335.015625 139.996094 L 335.820312 142.265625 C 337.503906 146.074219 340.382812 147.972656 343.613281 150.484375 C 346.164062 152.101562 348.144531 152.851562 351.066406 153.539062 C 353.53125 154.175781 355.273438 154.730469 357.335938 156.234375 C 364.957031 164.203125 369.378906 175.996094 372.835938 186.273438 C 373.300781 188.5625 373.300781 188.5625 372.917969 190.738281 L 372.367188 192.296875 L 370.5 192.296875 L 370.5 195.101562 L 372.367188 195.101562 L 372.128906 196.871094 L 371.84375 199.1875 L 371.546875 201.484375 C 371.261719 203.550781 371.261719 203.550781 372.367188 205.375 C 370.761719 212.003906 368.792969 218.671875 364.539062 224.082031 C 363.042969 225.535156 361.5 226.933594 359.910156 228.285156 C 357.714844 230.324219 356.15625 232.230469 354.390625 234.628906 C 350.9375 239.167969 346.984375 242.4375 342.429688 245.824219 L 340.230469 247.503906 C 337.230469 249.785156 334.417969 251.894531 331.074219 253.644531 C 326.902344 257.121094 325.449219 261.820312 323.460938 266.78125 L 322.1875 269.835938 C 321.15625 272.3125 320.140625 274.796875 319.140625 277.285156 L 317.273438 277.285156 L 316.339844 272.617188 L 313.539062 273.550781 L 313.128906 276.121094 L 312.605469 279.15625 L 312.367188 281.03125 L 311.671875 282.890625 C 309.773438 284.414062 309.773438 284.414062 307.46875 285.808594 C 306.046875 286.671875 304.648438 287.566406 303.265625 288.496094 L 302.332031 290.363281 C 300.792969 291.023438 299.238281 291.648438 297.664062 292.230469 C 296.414062 292.839844 295.164062 293.457031 293.929688 294.097656 C 293.40625 292.347656 293.40625 292.347656 292.996094 290.363281 L 293.929688 288.496094 L 291.128906 288.496094 C 290.5625 270.042969 292.097656 252.710938 295.734375 234.625 C 299.410156 215.859375 298.867188 196.75 293.929688 178.289062 L 293.398438 176.214844 C 291.363281 168.375 288.722656 161.660156 283.988281 154.976562 L 282.722656 153.074219 L 282.722656 151.203125 L 281.105469 150.441406 C 278.929688 149.304688 277.007812 148.019531 275.003906 146.597656 L 272.71875 144.996094 C 271.152344 143.890625 269.589844 142.78125 268.027344 141.667969 C 264.433594 139.15625 261.183594 137.023438 257 135.644531 L 253.777344 134.394531 C 253.109375 132.449219 253.109375 132.449219 252.84375 130.660156 C 237.992188 134.417969 223.445312 138.691406 211.476562 148.722656 C 207.960938 152.152344 205.90625 155.957031 204.285156 160.542969 L 198.8125 161.183594 C 196.859375 161.472656 194.992188 161.902344 193.082031 162.414062 L 191.816406 160.84375 L 190.105469 158.792969 L 188.429688 156.757812 C 186.652344 154.8125 186.652344 154.8125 184.234375 154.042969 C 181.222656 152.804688 179.957031 151.144531 177.90625 148.636719 C 174.023438 144.175781 170.195312 141.039062 165.066406 138.128906 L 162.957031 136.886719 C 152.777344 131.316406 140.671875 128.582031 129.128906 128.796875 L 125.085938 128.84375 C 122.988281 128.871094 120.890625 128.90625 118.796875 128.949219 C 103.832031 129.242188 103.832031 129.242188 96.902344 125.988281 L 95.035156 125.164062 C 93.179688 124.3125 91.363281 123.414062 89.546875 122.488281 L 87.597656 121.492188 C 78.414062 116.753906 69.867188 111.726562 63.285156 103.574219 C 61.476562 100.554688 60.050781 97.441406 58.617188 94.234375 C 57.972656 93.058594 57.3125 91.890625 56.632812 90.730469 C 53.210938 84.804688 51.113281 80.257812 51.089844 73.398438 L 51.144531 69.953125 C 55.785156 70.847656 58.792969 73.507812 62.351562 76.488281 C 66.882812 80.605469 70.765625 84.953125 74.277344 89.96875 C 75.363281 91.566406 75.363281 91.566406 77.292969 92.367188 L 76.261719 90.847656 C 73.054688 85.847656 70.660156 80.8125 68.597656 75.265625 L 67.878906 73.335938 C 64.847656 64.957031 64.179688 56.617188 65.550781 47.769531 C 67.875 38.867188 73.582031 31.050781 79.757812 24.371094 C 91.179688 13.742188 105.316406 7.609375 120.359375 4.117188 C 130.589844 1.925781 140.789062 0.660156 151.246094 0.699219 "/>
  </g>
  <path style=" stroke:none;fill-rule:nonzero;fill:#000000;fill-opacity:1;" d="M 41.808594 110.113281 C 45.949219 109.917969 49.890625 110.199219 53.949219 111.046875 C 56.011719 112.417969 57.507812 113.964844 59.238281 115.742188 C 66.746094 122.085938 79.097656 125.8125 88.496094 127.855469 C 90.65625 127.941406 92.742188 127.867188 94.898438 127.738281 C 98.703125 127.960938 101.984375 129.832031 105.304688 131.59375 L 105.304688 133.460938 L 99.703125 134.394531 L 99.703125 136.261719 L 102.503906 137.195312 C 102.121094 139.480469 101.671875 140.804688 100.214844 142.636719 L 98.535156 144.375 C 93.390625 150.058594 90.355469 155.910156 88.496094 163.347656 C 87.570312 166.160156 86.640625 168.976562 85.695312 171.785156 C 82.9375 181.648438 82.535156 192.019531 82.253906 202.203125 C 82.191406 204.21875 82.121094 206.230469 82.039062 208.246094 C 81.824219 214.582031 81.878906 220.527344 83.375 226.734375 C 84.058594 229.734375 84.164062 232.71875 84.296875 235.785156 C 84.503906 239.578125 84.726562 243.101562 85.753906 246.757812 C 87.066406 251.777344 86.746094 256.925781 86.640625 262.070312 L 86.605469 264.199219 L 86.554688 266.113281 C 86.570312 267.992188 86.570312 267.992188 87.132812 269.921875 C 87.5625 271.683594 87.5625 271.683594 87.042969 273.683594 L 86.222656 275.652344 L 85.40625 277.652344 L 84.761719 279.15625 L 82.894531 279.15625 L 82.894531 284.757812 L 84.761719 284.757812 L 83.828125 280.089844 L 86.628906 281.023438 L 86.628906 286.625 L 80.09375 287.558594 L 79.160156 285.691406 L 76.96875 284.453125 C 74.21875 282.71875 73.035156 281.164062 71.28125 278.453125 L 69.570312 275.945312 C 68.613281 274.527344 67.660156 273.109375 66.71875 271.683594 C 63.785156 267.734375 60.640625 266.015625 56.164062 263.976562 L 53.035156 262.679688 C 50.210938 261.410156 50.210938 261.410156 48.324219 259.949219 C 45.933594 258.210938 43.675781 257.707031 40.816406 256.972656 C 31.410156 254.183594 23.960938 248.898438 16.867188 242.195312 C 10.640625 235.597656 7.605469 228.84375 5.535156 220.160156 C 3.921875 212.824219 3.335938 205.675781 3.289062 198.191406 L 3.230469 195.847656 C 3.207031 192.289062 3.261719 190.019531 4.878906 186.792969 L 6.324219 184.828125 C 7.4375 181.492188 7.25 178.941406 7.140625 175.429688 C 7.070312 169.417969 7.527344 164.183594 10.058594 158.675781 C 11.742188 155.726562 13.667969 153.015625 15.664062 150.269531 L 17.152344 147.996094 C 20.058594 143.605469 23.117188 139.910156 26.925781 136.261719 C 33.875 129.492188 37.375 122.492188 40.164062 113.261719 C 40.875 111.046875 40.875 111.046875 41.808594 110.113281 "/>
  <path style=" stroke:none;fill-rule:nonzero;fill:#000000;fill-opacity:1;" d="M 150.1875 221.941406 C 157.117188 224.917969 163.0625 229.429688 167.867188 235.257812 C 169.164062 237.511719 169.722656 238.835938 169.96875 241.445312 L 169.738281 243.664062 L 167.867188 245.53125 C 165.199219 245.75 163.015625 245.871094 160.398438 245.53125 C 158.007812 244.25 158.007812 244.25 155.730469 242.730469 L 152.34375 241.855469 L 149.191406 240.863281 L 148.042969 239.007812 L 146.390625 237.128906 C 143.910156 236.550781 141.726562 236.183594 139.214844 235.960938 L 137.226562 235.742188 C 135.613281 235.570312 134 235.40625 132.386719 235.257812 L 132.015625 237.488281 C 131.453125 239.929688 131.453125 239.929688 129.875 241.621094 C 127.714844 242.730469 127.714844 242.730469 124.972656 243.082031 C 122.113281 242.730469 122.113281 242.730469 119.722656 241.738281 C 117.445312 239.929688 117.445312 239.929688 115.578125 236.71875 C 114.457031 234.90625 114.457031 234.90625 112.777344 233.390625 C 109.84375 232.140625 106.9375 231.316406 103.859375 230.503906 C 100.738281 229.683594 97.765625 228.675781 94.742188 227.554688 L 92.183594 226.605469 L 90.363281 225.921875 C 92.234375 224.050781 92.234375 224.050781 93.921875 223.496094 C 99.277344 222.363281 104.582031 221.671875 110.03125 221.191406 L 114.792969 220.75 L 117.105469 220.539062 C 119.148438 220.332031 121.175781 220.085938 123.207031 219.8125 C 132.5625 218.6875 141.234375 218.8125 150.183594 221.941406 "/>
  <path style=" stroke:none;fill-rule:nonzero;fill:#ea1739;fill-opacity:1;" d="M 183.453125 325.269531 L 186.542969 325.851562 C 188.820312 328.1875 188.820312 328.1875 190.28125 330.519531 C 193.054688 329.472656 195.261719 328.445312 197.75 326.785156 C 200.667969 326.320312 200.667969 326.320312 204.285156 326.785156 C 207.292969 328.378906 209.960938 330.371094 212.691406 332.390625 C 214.160156 333.410156 215.640625 334.421875 217.125 335.425781 C 217.777344 335.871094 218.425781 336.320312 219.097656 336.78125 C 221.246094 338.085938 223.40625 338.988281 225.761719 339.859375 L 225.761719 341.730469 C 220.132812 344.269531 215.578125 345.617188 209.324219 345.457031 L 206.304688 345.410156 C 204.238281 345.371094 202.171875 345.320312 200.105469 345.265625 C 194.292969 345.1875 189.453125 345.632812 183.972656 347.617188 C 180.179688 348.789062 176.441406 348.855469 172.539062 348.265625 C 168.941406 346.988281 166.441406 345.003906 163.84375 342.195312 C 162.488281 340.191406 161.296875 338.367188 160.398438 336.125 L 160.398438 333.324219 L 163.257812 333.5 C 167.394531 333.300781 169.804688 332.421875 173.472656 330.519531 C 174.570312 329.695312 175.660156 328.859375 176.738281 328.011719 C 179.238281 326.164062 180.207031 325.816406 183.453125 325.269531 "/>
  <path style=" stroke:none;fill-rule:nonzero;fill:#000000;fill-opacity:1;" d="M 291.128906 224.984375 L 291.128906 227.789062 C 289.511719 229.058594 289.511719 229.058594 287.21875 230.355469 L 284.65625 231.832031 C 282.660156 232.914062 280.652344 233.976562 278.632812 235.011719 C 272.160156 238.046875 272.160156 238.046875 267.199219 242.964844 C 264.980469 245.53125 264.980469 245.53125 263.148438 246.390625 C 254.4375 248.992188 245.789062 248.648438 236.792969 248.511719 C 235.175781 248.496094 233.558594 248.480469 231.941406 248.472656 C 228.011719 248.441406 224.085938 248.394531 220.160156 248.335938 C 220.609375 245.21875 221.007812 242.898438 222.46875 240.082031 C 224.828125 238.0625 224.828125 238.0625 226.65625 237.65625 C 228.992188 237.484375 231.296875 237.460938 233.640625 237.476562 C 252 237.074219 271.292969 234.933594 287.59375 225.84375 C 289.261719 224.984375 289.261719 224.984375 291.128906 224.984375 "/>
  <path style=" stroke:none;fill-rule:nonzero;fill:#eb1739;fill-opacity:1;" d="M 203.292969 350.425781 C 205.21875 352.003906 205.21875 352.003906 206.503906 353.695312 C 207.085938 355.738281 207.085938 355.738281 207.085938 358.363281 C 206.019531 361.769531 204.703125 363.832031 202.292969 366.429688 C 199.808594 368.496094 197.40625 369.492188 194.300781 370.332031 C 190.671875 370.921875 188.269531 370.703125 184.675781 369.746094 C 181.992188 367.761719 181.992188 367.761719 180.007812 365.078125 C 178.667969 361.808594 178.667969 361.808594 178.140625 358.539062 C 178.785156 355.757812 179.816406 354.136719 181.46875 351.828125 C 184.226562 349.773438 186.511719 349.117188 189.867188 348.5 C 194.675781 348.007812 198.875 348.453125 203.292969 350.425781 "/>
  <path style=" stroke:none;fill-rule:nonzero;fill:#000000;fill-opacity:1;" d="M 281.789062 200.703125 L 281.789062 202.570312 L 279.785156 202.683594 C 258.039062 203.679688 258.039062 203.679688 237.796875 211.039062 C 234.992188 212.425781 232.007812 213.132812 229 213.96875 C 226.6875 214.714844 224.691406 215.667969 222.554688 216.8125 L 219.226562 218.449219 L 216.425781 217.515625 L 216.425781 214.714844 C 229.488281 208.957031 242.472656 203.328125 256.578125 200.703125 L 258.5625 200.332031 C 266.195312 199.15625 274.21875 199.269531 281.789062 200.703125 M 99.703125 198.835938 C 103.632812 198.726562 107.5625 198.660156 111.492188 198.601562 L 114.804688 198.507812 C 128.15625 198.359375 139.675781 203.019531 151.878906 207.941406 L 155.476562 209.375 C 158.367188 210.527344 161.25 211.683594 164.132812 212.84375 L 163.199219 216.582031 C 159.507812 215.386719 155.863281 214.054688 152.273438 212.585938 L 149.261719 211.367188 C 147.207031 210.527344 145.152344 209.691406 143.097656 208.847656 C 131.4375 204.128906 121.25 201.460938 108.632812 201.578125 L 106.023438 201.59375 C 103.914062 201.601562 101.808594 201.617188 99.703125 201.636719 Z M 179.074219 296.898438 C 182.300781 297.316406 184.78125 298.316406 187.652344 299.761719 C 192.304688 301.929688 196.433594 301.949219 201.484375 301.570312 C 199.597656 305.84375 197.449219 308.683594 194.015625 311.84375 C 188.414062 309.738281 183.800781 307.742188 179.832031 303.144531 C 178.933594 302.015625 178.058594 300.867188 177.207031 299.703125 Z M 179.074219 296.898438 "/>
  <path style=" stroke:none;fill-rule:nonzero;fill:#fefefe;fill-opacity:1;" d="M 220.160156 41 L 222.960938 41 C 224.957031 45.046875 225.113281 48.777344 225.0625 53.199219 L 225.085938 55.199219 C 225.074219 58.019531 224.949219 60.316406 223.878906 62.945312 L 222.960938 64.347656 C 220.5625 56.507812 220.027344 49.179688 220.160156 41 "/>
  <path style=" stroke:none;fill-rule:nonzero;fill:#070809;fill-opacity:1;" d="M 289.261719 224.984375 L 291.128906 224.984375 L 291.128906 227.789062 C 289.214844 229.222656 289.214844 229.222656 286.691406 230.648438 L 284.199219 232.082031 C 282.171875 233.1875 280.125 234.246094 278.054688 235.257812 L 277.121094 230.589844 L 279.539062 229.601562 L 282.664062 228.3125 L 285.785156 227.03125 C 288.203125 226.160156 288.203125 226.160156 289.261719 224.984375 "/>
  <path style=" stroke:none;fill-rule:nonzero;fill:#969495;fill-opacity:1;" d="M 272.453125 237.128906 L 276.1875 237.128906 C 276.011719 238.820312 276.011719 238.820312 275.253906 240.863281 C 273.09375 242.496094 273.09375 242.496094 270.585938 243.664062 L 266.847656 243.664062 C 267.789062 241.394531 268.660156 239.984375 270.46875 238.292969 Z M 272.453125 237.128906 "/>
  <path style=" stroke:none;fill-rule:nonzero;fill:#bab8be;fill-opacity:1;" d="M 321.007812 86.761719 L 322.875 86.761719 L 322.875 88.632812 L 320.074219 90.5 L 319.667969 92.777344 L 319.140625 95.167969 C 317.390625 96.917969 317.390625 96.917969 315.40625 97.96875 L 312.605469 97.035156 C 313.890625 94.703125 313.890625 94.703125 315.40625 92.367188 L 317.273438 92.367188 L 317.566406 90.617188 L 318.207031 88.632812 Z M 321.007812 86.761719 "/>
  <path style=" stroke:none;fill-rule:nonzero;fill:#dfdde0;fill-opacity:1;" d="M 217.359 29.793 L 219.227 29.793 L 221.094 37.266 L 218.293 37.266 L 217.359 29.793 Z M 217.359 29.793"/>
</svg>